<svg width="217" height="217" viewBox="0 0 217 217" fill="none" xmlns="http://www.w3.org/2000/svg">
<path d="M108.5 0C48.5863 0 0 48.5863 0 108.5C0 168.414 48.5863 217 108.5 217C168.414 217 217 168.414 217 108.5C217 48.5863 168.414 0 108.5 0ZM76.9712 164.021H50.5465V84.5223H76.9712V164.021ZM63.7596 73.6666H63.5875C54.7202 73.6666 48.9853 67.5625 48.9853 59.9336C48.9853 52.1325 54.8957 46.1973 63.9351 46.1973C72.9746 46.1973 78.5373 52.1325 78.7095 59.9336C78.7095 67.5625 72.9746 73.6666 63.7596 73.6666ZM172.253 164.021H145.832V121.491C145.832 110.803 142.006 103.513 132.445 103.513C125.145 103.513 120.798 108.43 118.887 113.177C118.188 114.876 118.018 117.25 118.018 119.625V164.021H91.5949C91.5949 164.021 91.9409 91.9806 91.5949 84.5223H118.018V95.7785C121.529 90.3615 127.812 82.6564 141.832 82.6564C159.217 82.6564 172.253 94.0187 172.253 118.437V164.021Z" fill="black"/>
</svg>
