<svg width="51" height="81" viewBox="0 0 51 81" fill="none" xmlns="http://www.w3.org/2000/svg">
<path d="M37.0233 14.152C37.0233 16.5413 36.4473 18.7813 35.2952 20.872C34.1859 22.9627 32.4153 24.648 29.9833 25.928C27.5939 27.208 24.5646 27.848 20.8953 27.848H13.4073V45H4.44725V0.327999H20.8953C24.3513 0.327999 27.2953 0.925332 29.7273 2.12C32.1593 3.31467 33.9726 4.95733 35.1673 7.048C36.4046 9.13866 37.0233 11.5067 37.0233 14.152ZM20.5113 20.616C22.9859 20.616 24.8206 20.0613 26.0153 18.952C27.2099 17.8 27.8073 16.2 27.8073 14.152C27.8073 9.8 25.3753 7.624 20.5113 7.624H13.4073V20.616H20.5113Z" fill="#F11D58"/>
<path d="M37.1552 43.56V54.76H22.1152V61.864H37.1552V73.704H20.1952V81H46.1152V36.264H20.1952V43.56H37.1552Z" fill="#F11D58"/>
</svg>
