<svg width="41" height="86" viewBox="0 0 41 86" fill="none" xmlns="http://www.w3.org/2000/svg">
<path d="M28.1424 19.864C28.1424 21.656 27.7104 23.336 26.8464 24.904C26.0144 26.472 24.6864 27.736 22.8624 28.696C21.0704 29.656 18.7984 30.136 16.0464 30.136H10.4304V43H3.71044V9.496H16.0464C18.6384 9.496 20.8464 9.944 22.6704 10.84C24.4944 11.736 25.8544 12.968 26.7504 14.536C27.6784 16.104 28.1424 17.88 28.1424 19.864ZM15.7584 24.712C17.6144 24.712 18.9904 24.296 19.8864 23.464C20.7824 22.6 21.2304 21.4 21.2304 19.864C21.2304 16.6 19.4064 14.968 15.7584 14.968H10.4304V24.712H15.7584Z" fill="#F11D58"/>
<path d="M30.7414 38.92V47.32H19.4614V52.648H30.7414V61.528H18.0214V67H37.4614V33.448H18.0214V38.92H30.7414Z" fill="#F11D58"/>
</svg>
