<svg width="127" height="152" viewBox="0 0 127 152" fill="none" xmlns="http://www.w3.org/2000/svg">
<path fill-rule="evenodd" clip-rule="evenodd" d="M88.875 13.5424C98.0902 10.1667 108.181 -4.89972 115.519 1.61642C124.924 9.96739 106.972 32.1193 117.517 38.9743C130.69 47.5373 161.798 17.4747 163.873 33.0485C166.301 51.2754 134.389 54.4707 121.302 67.3881C118.486 70.1679 117.034 74.7047 117.724 78.6012C119.042 86.0466 127.062 91.5649 126.922 99.1249C126.801 105.662 119.69 109.897 117.034 115.872C111.93 127.356 115.736 146.595 103.92 150.878C93.3538 154.708 87.747 135.183 77.7087 130.127C70.618 126.556 62.0543 128.294 54.4626 125.971C45.6995 123.289 37.3706 119.793 29.3652 115.333C19.0015 109.558 -1.32069 107.443 0.0676603 95.6608C1.89265 80.1726 24.2509 76.4833 35.2461 65.4235C39.8998 60.7425 40.9493 53.0794 46.2759 49.1811C51.4769 45.3747 60.8591 49.0485 64.6962 43.87C69.8001 36.9819 63.509 25.4144 68.8533 18.711C73.187 13.2753 82.3473 15.9336 88.875 13.5424Z" fill="white"/>
</svg>
